<svg xmlns="http://www.w3.org/2000/svg" style="display: none;">
  <symbol id="icon-menu" viewBox="0 0 24 24">
    <path d="M4 7H20M4 12H20M4 17H20" stroke="currentColor" stroke-width="2" stroke-linecap="round" fill="none" />
  </symbol>

  <symbol id="icon-close" viewBox="0 0 24 24">
    <path d="M6 6L18 18M18 6L6 18" stroke="currentColor" stroke-width="2" stroke-linecap="round" fill="none" />
  </symbol>

  <symbol id="icon-logo-mark" viewBox="0 0 32 32">
    <rect class="logo-bg" x="3" y="3" width="26" height="26" rx="8" fill="currentColor" />

    <path class="logo-m"
      d="M10 23V9.5C10 9.1 10.3 8.8 10.7 8.8H12.2L16 14L19.8 8.8H21.3C21.7 8.8 22 9.1 22 9.5V23H20V14.8L17.6 18.2C17.4 18.5 17.1 18.7 16.7 18.7C16.3 18.7 16 18.5 15.8 18.2L13.4 14.8V23H10Z"
      fill="#ffffff" />

    <path class="logo-s" d="M22.5 13
       C21.2 12.5 20 13 19.7 13.9
       C19.4 14.8 20.1 15.5 21.2 15.9
       C22.3 16.3 22.9 16.8 22.7 17.7
       C22.5 18.7 21.5 19.2 20.5 18.9" stroke="#9CA3AF" stroke-width="1" stroke-linecap="round" stroke-linejoin="round"
      fill="none" />

    <path class="logo-stripe1" d="M22 9L25.5 5.5" stroke="#7DD3FC" stroke-width="1.6" stroke-linecap="round" />

    <path class="logo-stripe2" d="M23.5 11L26.5 8" stroke="#60A5FA" stroke-width="1.3" stroke-linecap="round" />

    <path class="logo-stripe3" d="M24.7 13L27.2 10.5" stroke="#3B82F6" stroke-width="1" stroke-linecap="round" />
  </symbol>
</svg>