<svg xmlns="http://www.w3.org/2000/svg" style="display: none;">
  <symbol id="icon-menu" viewBox="0 0 24 24">
    <path d="M4 7H20M4 12H20M4 17H20" stroke="currentColor" stroke-width="2" stroke-linecap="round" fill="none" />
  </symbol>

  <symbol id="icon-close" viewBox="0 0 24 24">
    <path d="M6 6L18 18M18 6L6 18" stroke="currentColor" stroke-width="2" stroke-linecap="round" fill="none" />
  </symbol>

  <symbol id="icon-email" viewBox="0 0 24 24">
    <path d="M4 6.5h16v11H4v-11Zm1.9 1.4 6.1 4.5 6.1-4.5H5.9Zm12.6 8.2V9.4L12 14.2 5.5 9.4v6.7h13Z" fill="currentColor" />
  </symbol>

  <symbol id="icon-github" viewBox="0 0 24 24">
    <path d="M12 2.8a9.4 9.4 0 0 0-3 18.3c.5.1.7-.2.7-.5v-1.8c-2.9.6-3.5-1.2-3.5-1.2-.5-1.1-1.1-1.4-1.1-1.4-.9-.6.1-.6.1-.6 1 0 1.6 1.1 1.6 1.1.9 1.6 2.4 1.1 3 .8.1-.7.4-1.1.7-1.4-2.3-.3-4.7-1.1-4.7-5.1 0-1.1.4-2 1.1-2.8-.1-.3-.5-1.4.1-2.8 0 0 .9-.3 2.9 1.1a9.6 9.6 0 0 1 5.3 0c2-1.4 2.9-1.1 2.9-1.1.6 1.4.2 2.5.1 2.8.7.8 1.1 1.7 1.1 2.8 0 4-2.4 4.8-4.7 5.1.4.3.8 1 .8 2v2.5c0 .3.2.6.8.5A9.4 9.4 0 0 0 12 2.8Z" fill="currentColor" />
  </symbol>

  <symbol id="icon-linkedin" viewBox="0 0 24 24">
    <path d="M6.8 8.9h3.1v9.8H6.8V8.9Zm1.6-4.8a1.8 1.8 0 1 1 0 3.6 1.8 1.8 0 0 1 0-3.6Zm3.4 4.8h3v1.3h.1c.4-.8 1.4-1.6 2.9-1.6 3.1 0 3.7 2 3.7 4.7v5.4h-3.1v-4.8c0-1.1 0-2.6-1.6-2.6s-1.8 1.2-1.8 2.5v4.9h-3.1V8.9Z" fill="currentColor" />
  </symbol>

  <symbol id="icon-telegram" viewBox="0 0 24 24">
    <path d="M20.8 4.2 3.6 10.8c-1.1.4-1.1 1.1-.2 1.4l4.4 1.4 1.7 5.2c.2.6.3.8.6.8.3 0 .5-.1.7-.3l2.5-2.4 4.6 3.4c.8.5 1.4.3 1.6-.8l2.8-13.3c.3-1.2-.4-1.7-1.5-1.2Zm-11 9.1 8.6-5.4c.4-.3.8-.1.5.2l-7.4 6.7-.3 3-1.4-4.5Z" fill="currentColor" />
  </symbol>

  <symbol id="icon-logo-mark" viewBox="0 0 32 32">
    <rect class="logo-bg" x="3" y="3" width="26" height="26" rx="8" fill="currentColor" />

    <path class="logo-m"
      d="M10 23V9.5C10 9.1 10.3 8.8 10.7 8.8H12.2L16 14L19.8 8.8H21.3C21.7 8.8 22 9.1 22 9.5V23H20V14.8L17.6 18.2C17.4 18.5 17.1 18.7 16.7 18.7C16.3 18.7 16 18.5 15.8 18.2L13.4 14.8V23H10Z"
      fill="#ffffff" />

    <path class="logo-s" d="M22.5 13
       C21.2 12.5 20 13 19.7 13.9
       C19.4 14.8 20.1 15.5 21.2 15.9
       C22.3 16.3 22.9 16.8 22.7 17.7
       C22.5 18.7 21.5 19.2 20.5 18.9" stroke="#9CA3AF" stroke-width="1" stroke-linecap="round" stroke-linejoin="round"
      fill="none" />

    <path class="logo-stripe1" d="M22 9L25.5 5.5" stroke="#7DD3FC" stroke-width="1.6" stroke-linecap="round" />

    <path class="logo-stripe2" d="M23.5 11L26.5 8" stroke="#60A5FA" stroke-width="1.3" stroke-linecap="round" />

    <path class="logo-stripe3" d="M24.7 13L27.2 10.5" stroke="#3B82F6" stroke-width="1" stroke-linecap="round" />
  </symbol>
</svg>
