<svg width="220" height="220" viewBox="0 0 220 220" fill="none" xmlns="http://www.w3.org/2000/svg">
  <rect x="20" y="20" width="180" height="180" rx="50" fill="#111111"/>
  <path
    d="M68 146V74C68 68.477 72.477 64 78 64H90L110 106L130 64H142C147.523 64 152 68.477 152 74V146H136V92L118 130C116.4 133.2 113.6 135 110 135C106.4 135 103.6 133.2 102 130L84 92V146H68Z"
    fill="white"
  />
  <path
    d="M154 92
       C145 90 139 94 139 100
       C139 106 144 110 151 113
       C158 116 161 120 160 126
       C159 132 152 136 145 135"
    stroke="#A8B1BD"
    stroke-width="6"
    stroke-linecap="round"
    stroke-linejoin="round"
    fill="none"
  />
  <path d="M153 67L179 41" stroke="#7DD3FC" stroke-width="10" stroke-linecap="round"/>
  <path d="M164 82L186 60" stroke="#5FA8FF" stroke-width="8" stroke-linecap="round"/>
  <path d="M173 95L191 77" stroke="#3D7BE0" stroke-width="6" stroke-linecap="round"/>
</svg>